<svg xmlns="http://www.w3.org/2000/svg" xmlns:xlink="http://www.w3.org/1999/xlink" width="180" zoomAndPan="magnify" viewBox="0 0 135 135.000003" height="180" preserveAspectRatio="xMidYMid meet" version="1.0"><defs><g/></defs><g fill="#000000" fill-opacity="0.4"><g transform="translate(8.455915, 56.588593)"><g><path d="M -0.171875 -4.234375 L 5.375 -8.484375 C 5.707031 -8.765625 6.503906 -9.351562 7.765625 -10.25 C 9.785156 -11.757812 11.316406 -12.941406 12.359375 -13.796875 C 13.410156 -14.648438 14.316406 -15.523438 15.078125 -16.421875 C 15.835938 -17.316406 16.3125 -18.195312 16.5 -19.0625 C 16.613281 -19.675781 16.671875 -20.113281 16.671875 -20.375 C 16.671875 -21.1875 16.394531 -21.820312 15.84375 -22.28125 C 15.300781 -22.738281 14.332031 -22.96875 12.9375 -22.96875 C 11.507812 -22.96875 10.046875 -22.71875 8.546875 -22.21875 C 7.046875 -21.71875 5.609375 -21.019531 4.234375 -20.125 L 5.75 -27.21875 C 7.207031 -28.082031 8.820312 -28.757812 10.59375 -29.25 C 12.375 -29.738281 14.21875 -29.984375 16.125 -29.984375 C 17.914062 -29.984375 19.476562 -29.664062 20.8125 -29.03125 C 22.144531 -28.40625 23.164062 -27.523438 23.875 -26.390625 C 24.59375 -25.265625 24.953125 -23.972656 24.953125 -22.515625 C 24.953125 -21.984375 24.878906 -21.335938 24.734375 -20.578125 C 24.265625 -18.421875 23.363281 -16.535156 22.03125 -14.921875 C 20.695312 -13.316406 18.71875 -11.503906 16.09375 -9.484375 L 11.59375 -6.09375 L 22.546875 -6.09375 L 21.296875 0 L -1.046875 0 Z M -0.171875 -4.234375 "/></g></g></g><g fill="#000000" fill-opacity="0.4"><g transform="translate(32.896209, 56.588593)"><g><path d="M 2.984375 -2.609375 L 10.625 -2.609375 L 4.328125 6.265625 L -2.359375 6.265625 Z M 2.984375 -2.609375 "/></g></g></g><g fill="#000000" fill-opacity="0.4"><g transform="translate(46.124205, 56.588593)"><g><path d="M 12.859375 -6.046875 L -0.625 -6.046875 L 0.34375 -10.671875 L 18.234375 -29.359375 L 25.578125 -29.359375 L 21.875 -11.921875 L 26.046875 -11.921875 L 24.78125 -6.046875 L 20.625 -6.046875 L 19.359375 0 L 11.59375 0 Z M 15.25 -11.921875 L 17.015625 -20.328125 L 9.078125 -11.921875 Z M 15.25 -11.921875 "/></g></g></g><g fill="#000000" fill-opacity="0.4"><g transform="translate(71.950287, 56.588593)"><g><path d="M 12.3125 0.625 C 10.175781 0.625 8.300781 0.191406 6.6875 -0.671875 C 5.082031 -1.535156 3.832031 -2.800781 2.9375 -4.46875 C 2.039062 -6.132812 1.59375 -8.117188 1.59375 -10.421875 C 1.59375 -11.867188 1.75 -13.28125 2.0625 -14.65625 C 2.726562 -17.820312 3.851562 -20.550781 5.4375 -22.84375 C 7.019531 -25.144531 8.953125 -26.910156 11.234375 -28.140625 C 13.515625 -29.367188 16.039062 -29.984375 18.8125 -29.984375 C 22.09375 -29.984375 24.703125 -29.003906 26.640625 -27.046875 C 28.585938 -25.085938 29.5625 -22.382812 29.5625 -18.9375 C 29.5625 -17.507812 29.410156 -16.082031 29.109375 -14.65625 C 28.429688 -11.488281 27.285156 -8.757812 25.671875 -6.46875 C 24.066406 -4.175781 22.113281 -2.421875 19.8125 -1.203125 C 17.519531 0.015625 15.019531 0.625 12.3125 0.625 Z M 13.8125 -6.34375 C 15.6875 -6.34375 17.289062 -7.066406 18.625 -8.515625 C 19.957031 -9.972656 20.90625 -11.992188 21.46875 -14.578125 C 21.738281 -15.804688 21.875 -16.992188 21.875 -18.140625 C 21.875 -19.710938 21.515625 -20.910156 20.796875 -21.734375 C 20.085938 -22.554688 18.9375 -22.96875 17.34375 -22.96875 C 15.4375 -22.96875 13.8125 -22.21875 12.46875 -20.71875 C 11.125 -19.226562 10.175781 -17.179688 9.625 -14.578125 C 9.34375 -13.171875 9.203125 -12.019531 9.203125 -11.125 C 9.203125 -7.9375 10.738281 -6.34375 13.8125 -6.34375 Z M 13.8125 -6.34375 "/></g></g></g><g fill="#000000" fill-opacity="0.4"><g transform="translate(101.093871, 56.588593)"><g><path d="M 12.3125 0.625 C 10.175781 0.625 8.300781 0.191406 6.6875 -0.671875 C 5.082031 -1.535156 3.832031 -2.800781 2.9375 -4.46875 C 2.039062 -6.132812 1.59375 -8.117188 1.59375 -10.421875 C 1.59375 -11.867188 1.75 -13.28125 2.0625 -14.65625 C 2.726562 -17.820312 3.851562 -20.550781 5.4375 -22.84375 C 7.019531 -25.144531 8.953125 -26.910156 11.234375 -28.140625 C 13.515625 -29.367188 16.039062 -29.984375 18.8125 -29.984375 C 22.09375 -29.984375 24.703125 -29.003906 26.640625 -27.046875 C 28.585938 -25.085938 29.5625 -22.382812 29.5625 -18.9375 C 29.5625 -17.507812 29.410156 -16.082031 29.109375 -14.65625 C 28.429688 -11.488281 27.285156 -8.757812 25.671875 -6.46875 C 24.066406 -4.175781 22.113281 -2.421875 19.8125 -1.203125 C 17.519531 0.015625 15.019531 0.625 12.3125 0.625 Z M 13.8125 -6.34375 C 15.6875 -6.34375 17.289062 -7.066406 18.625 -8.515625 C 19.957031 -9.972656 20.90625 -11.992188 21.46875 -14.578125 C 21.738281 -15.804688 21.875 -16.992188 21.875 -18.140625 C 21.875 -19.710938 21.515625 -20.910156 20.796875 -21.734375 C 20.085938 -22.554688 18.9375 -22.96875 17.34375 -22.96875 C 15.4375 -22.96875 13.8125 -22.21875 12.46875 -20.71875 C 11.125 -19.226562 10.175781 -17.179688 9.625 -14.578125 C 9.34375 -13.171875 9.203125 -12.019531 9.203125 -11.125 C 9.203125 -7.9375 10.738281 -6.34375 13.8125 -6.34375 Z M 13.8125 -6.34375 "/></g></g></g><g fill="#5500ff" fill-opacity="1"><g transform="translate(6.599602, 54.73228)"><g><path d="M -0.171875 -4.234375 L 5.375 -8.484375 C 5.707031 -8.765625 6.503906 -9.351562 7.765625 -10.25 C 9.785156 -11.757812 11.316406 -12.941406 12.359375 -13.796875 C 13.410156 -14.648438 14.316406 -15.523438 15.078125 -16.421875 C 15.835938 -17.316406 16.3125 -18.195312 16.5 -19.0625 C 16.613281 -19.675781 16.671875 -20.113281 16.671875 -20.375 C 16.671875 -21.1875 16.394531 -21.820312 15.84375 -22.28125 C 15.300781 -22.738281 14.332031 -22.96875 12.9375 -22.96875 C 11.507812 -22.96875 10.046875 -22.71875 8.546875 -22.21875 C 7.046875 -21.71875 5.609375 -21.019531 4.234375 -20.125 L 5.75 -27.21875 C 7.207031 -28.082031 8.820312 -28.757812 10.59375 -29.25 C 12.375 -29.738281 14.21875 -29.984375 16.125 -29.984375 C 17.914062 -29.984375 19.476562 -29.664062 20.8125 -29.03125 C 22.144531 -28.40625 23.164062 -27.523438 23.875 -26.390625 C 24.59375 -25.265625 24.953125 -23.972656 24.953125 -22.515625 C 24.953125 -21.984375 24.878906 -21.335938 24.734375 -20.578125 C 24.265625 -18.421875 23.363281 -16.535156 22.03125 -14.921875 C 20.695312 -13.316406 18.71875 -11.503906 16.09375 -9.484375 L 11.59375 -6.09375 L 22.546875 -6.09375 L 21.296875 0 L -1.046875 0 Z M -0.171875 -4.234375 "/></g></g></g><g fill="#5500ff" fill-opacity="1"><g transform="translate(31.039896, 54.73228)"><g><path d="M 2.984375 -2.609375 L 10.625 -2.609375 L 4.328125 6.265625 L -2.359375 6.265625 Z M 2.984375 -2.609375 "/></g></g></g><g fill="#5500ff" fill-opacity="1"><g transform="translate(44.267892, 54.73228)"><g><path d="M 12.859375 -6.046875 L -0.625 -6.046875 L 0.34375 -10.671875 L 18.234375 -29.359375 L 25.578125 -29.359375 L 21.875 -11.921875 L 26.046875 -11.921875 L 24.78125 -6.046875 L 20.625 -6.046875 L 19.359375 0 L 11.59375 0 Z M 15.25 -11.921875 L 17.015625 -20.328125 L 9.078125 -11.921875 Z M 15.25 -11.921875 "/></g></g></g><g fill="#5500ff" fill-opacity="1"><g transform="translate(70.093974, 54.73228)"><g><path d="M 12.3125 0.625 C 10.175781 0.625 8.300781 0.191406 6.6875 -0.671875 C 5.082031 -1.535156 3.832031 -2.800781 2.9375 -4.46875 C 2.039062 -6.132812 1.59375 -8.117188 1.59375 -10.421875 C 1.59375 -11.867188 1.75 -13.28125 2.0625 -14.65625 C 2.726562 -17.820312 3.851562 -20.550781 5.4375 -22.84375 C 7.019531 -25.144531 8.953125 -26.910156 11.234375 -28.140625 C 13.515625 -29.367188 16.039062 -29.984375 18.8125 -29.984375 C 22.09375 -29.984375 24.703125 -29.003906 26.640625 -27.046875 C 28.585938 -25.085938 29.5625 -22.382812 29.5625 -18.9375 C 29.5625 -17.507812 29.410156 -16.082031 29.109375 -14.65625 C 28.429688 -11.488281 27.285156 -8.757812 25.671875 -6.46875 C 24.066406 -4.175781 22.113281 -2.421875 19.8125 -1.203125 C 17.519531 0.015625 15.019531 0.625 12.3125 0.625 Z M 13.8125 -6.34375 C 15.6875 -6.34375 17.289062 -7.066406 18.625 -8.515625 C 19.957031 -9.972656 20.90625 -11.992188 21.46875 -14.578125 C 21.738281 -15.804688 21.875 -16.992188 21.875 -18.140625 C 21.875 -19.710938 21.515625 -20.910156 20.796875 -21.734375 C 20.085938 -22.554688 18.9375 -22.96875 17.34375 -22.96875 C 15.4375 -22.96875 13.8125 -22.21875 12.46875 -20.71875 C 11.125 -19.226562 10.175781 -17.179688 9.625 -14.578125 C 9.34375 -13.171875 9.203125 -12.019531 9.203125 -11.125 C 9.203125 -7.9375 10.738281 -6.34375 13.8125 -6.34375 Z M 13.8125 -6.34375 "/></g></g></g><g fill="#5500ff" fill-opacity="1"><g transform="translate(99.237558, 54.73228)"><g><path d="M 12.3125 0.625 C 10.175781 0.625 8.300781 0.191406 6.6875 -0.671875 C 5.082031 -1.535156 3.832031 -2.800781 2.9375 -4.46875 C 2.039062 -6.132812 1.59375 -8.117188 1.59375 -10.421875 C 1.59375 -11.867188 1.75 -13.28125 2.0625 -14.65625 C 2.726562 -17.820312 3.851562 -20.550781 5.4375 -22.84375 C 7.019531 -25.144531 8.953125 -26.910156 11.234375 -28.140625 C 13.515625 -29.367188 16.039062 -29.984375 18.8125 -29.984375 C 22.09375 -29.984375 24.703125 -29.003906 26.640625 -27.046875 C 28.585938 -25.085938 29.5625 -22.382812 29.5625 -18.9375 C 29.5625 -17.507812 29.410156 -16.082031 29.109375 -14.65625 C 28.429688 -11.488281 27.285156 -8.757812 25.671875 -6.46875 C 24.066406 -4.175781 22.113281 -2.421875 19.8125 -1.203125 C 17.519531 0.015625 15.019531 0.625 12.3125 0.625 Z M 13.8125 -6.34375 C 15.6875 -6.34375 17.289062 -7.066406 18.625 -8.515625 C 19.957031 -9.972656 20.90625 -11.992188 21.46875 -14.578125 C 21.738281 -15.804688 21.875 -16.992188 21.875 -18.140625 C 21.875 -19.710938 21.515625 -20.910156 20.796875 -21.734375 C 20.085938 -22.554688 18.9375 -22.96875 17.34375 -22.96875 C 15.4375 -22.96875 13.8125 -22.21875 12.46875 -20.71875 C 11.125 -19.226562 10.175781 -17.179688 9.625 -14.578125 C 9.34375 -13.171875 9.203125 -12.019531 9.203125 -11.125 C 9.203125 -7.9375 10.738281 -6.34375 13.8125 -6.34375 Z M 13.8125 -6.34375 "/></g></g></g><g fill="#000000" fill-opacity="0.4"><g transform="translate(8.897953, 95.301828)"><g><path d="M 14.78125 0.625 C 12.320312 0.625 10.097656 0.148438 8.109375 -0.796875 C 6.117188 -1.742188 4.550781 -3.117188 3.40625 -4.921875 C 2.257812 -6.734375 1.6875 -8.84375 1.6875 -11.25 C 1.6875 -12.34375 1.8125 -13.476562 2.0625 -14.65625 C 2.726562 -17.789062 3.929688 -20.515625 5.671875 -22.828125 C 7.410156 -25.140625 9.609375 -26.910156 12.265625 -28.140625 C 14.921875 -29.367188 17.929688 -29.984375 21.296875 -29.984375 C 23.390625 -29.984375 25.21875 -29.773438 26.78125 -29.359375 C 28.351562 -28.941406 29.742188 -28.285156 30.953125 -27.390625 L 29.4375 -20.328125 C 28.4375 -21.304688 27.207031 -22.019531 25.75 -22.46875 C 24.289062 -22.914062 22.550781 -23.140625 20.53125 -23.140625 C 17.65625 -23.140625 15.269531 -22.382812 13.375 -20.875 C 11.488281 -19.363281 10.265625 -17.289062 9.703125 -14.65625 C 9.453125 -13.539062 9.328125 -12.503906 9.328125 -11.546875 C 9.328125 -9.753906 9.90625 -8.398438 11.0625 -7.484375 C 12.226562 -6.578125 14.179688 -6.125 16.921875 -6.125 C 18.941406 -6.125 20.796875 -6.363281 22.484375 -6.84375 C 24.179688 -7.320312 25.828125 -8.078125 27.421875 -9.109375 L 25.90625 -2.09375 C 22.882812 -0.28125 19.175781 0.625 14.78125 0.625 Z M 14.78125 0.625 "/></g></g></g><g fill="#000000" fill-opacity="0.4"><g transform="translate(37.537609, 95.301828)"><g><path d="M 6 -29.359375 L 13.4375 -29.359375 L 8.53125 -6.265625 L 21.296875 -6.265625 L 19.984375 0 L -0.203125 0 Z M 6 -29.359375 "/></g></g></g><g fill="#000000" fill-opacity="0.4"><g transform="translate(59.836225, 95.301828)"><g><path d="M 6 -29.359375 L 13.4375 -29.359375 L 7.21875 0 L -0.203125 0 Z M 6 -29.359375 "/></g></g></g><g fill="#000000" fill-opacity="0.4"><g transform="translate(71.048523, 95.301828)"><g><path d="M 14.78125 0.625 C 12.320312 0.625 10.097656 0.148438 8.109375 -0.796875 C 6.117188 -1.742188 4.550781 -3.117188 3.40625 -4.921875 C 2.257812 -6.734375 1.6875 -8.84375 1.6875 -11.25 C 1.6875 -12.34375 1.8125 -13.476562 2.0625 -14.65625 C 2.726562 -17.789062 3.929688 -20.515625 5.671875 -22.828125 C 7.410156 -25.140625 9.609375 -26.910156 12.265625 -28.140625 C 14.921875 -29.367188 17.929688 -29.984375 21.296875 -29.984375 C 23.390625 -29.984375 25.21875 -29.773438 26.78125 -29.359375 C 28.351562 -28.941406 29.742188 -28.285156 30.953125 -27.390625 L 29.4375 -20.328125 C 28.4375 -21.304688 27.207031 -22.019531 25.75 -22.46875 C 24.289062 -22.914062 22.550781 -23.140625 20.53125 -23.140625 C 17.65625 -23.140625 15.269531 -22.382812 13.375 -20.875 C 11.488281 -19.363281 10.265625 -17.289062 9.703125 -14.65625 C 9.453125 -13.539062 9.328125 -12.503906 9.328125 -11.546875 C 9.328125 -9.753906 9.90625 -8.398438 11.0625 -7.484375 C 12.226562 -6.578125 14.179688 -6.125 16.921875 -6.125 C 18.941406 -6.125 20.796875 -6.363281 22.484375 -6.84375 C 24.179688 -7.320312 25.828125 -8.078125 27.421875 -9.109375 L 25.90625 -2.09375 C 22.882812 -0.28125 19.175781 0.625 14.78125 0.625 Z M 14.78125 0.625 "/></g></g></g><g fill="#000000" fill-opacity="0.4"><g transform="translate(99.68818, 95.301828)"><g><path d="M 6 -29.359375 L 13.4375 -29.359375 L 10.84375 -17.171875 L 23.359375 -29.359375 L 32.375 -29.359375 L 17.46875 -14.875 L 26.75 0 L 18.140625 0 L 9.953125 -12.984375 L 7.21875 0 L -0.203125 0 Z M 6 -29.359375 "/></g></g></g><g fill="#5500ff" fill-opacity="1"><g transform="translate(7.04164, 93.445515)"><g><path d="M 14.78125 0.625 C 12.320312 0.625 10.097656 0.148438 8.109375 -0.796875 C 6.117188 -1.742188 4.550781 -3.117188 3.40625 -4.921875 C 2.257812 -6.734375 1.6875 -8.84375 1.6875 -11.25 C 1.6875 -12.34375 1.8125 -13.476562 2.0625 -14.65625 C 2.726562 -17.789062 3.929688 -20.515625 5.671875 -22.828125 C 7.410156 -25.140625 9.609375 -26.910156 12.265625 -28.140625 C 14.921875 -29.367188 17.929688 -29.984375 21.296875 -29.984375 C 23.390625 -29.984375 25.21875 -29.773438 26.78125 -29.359375 C 28.351562 -28.941406 29.742188 -28.285156 30.953125 -27.390625 L 29.4375 -20.328125 C 28.4375 -21.304688 27.207031 -22.019531 25.75 -22.46875 C 24.289062 -22.914062 22.550781 -23.140625 20.53125 -23.140625 C 17.65625 -23.140625 15.269531 -22.382812 13.375 -20.875 C 11.488281 -19.363281 10.265625 -17.289062 9.703125 -14.65625 C 9.453125 -13.539062 9.328125 -12.503906 9.328125 -11.546875 C 9.328125 -9.753906 9.90625 -8.398438 11.0625 -7.484375 C 12.226562 -6.578125 14.179688 -6.125 16.921875 -6.125 C 18.941406 -6.125 20.796875 -6.363281 22.484375 -6.84375 C 24.179688 -7.320312 25.828125 -8.078125 27.421875 -9.109375 L 25.90625 -2.09375 C 22.882812 -0.28125 19.175781 0.625 14.78125 0.625 Z M 14.78125 0.625 "/></g></g></g><g fill="#5500ff" fill-opacity="1"><g transform="translate(35.681296, 93.445515)"><g><path d="M 6 -29.359375 L 13.4375 -29.359375 L 8.53125 -6.265625 L 21.296875 -6.265625 L 19.984375 0 L -0.203125 0 Z M 6 -29.359375 "/></g></g></g><g fill="#5500ff" fill-opacity="1"><g transform="translate(57.979912, 93.445515)"><g><path d="M 6 -29.359375 L 13.4375 -29.359375 L 7.21875 0 L -0.203125 0 Z M 6 -29.359375 "/></g></g></g><g fill="#5500ff" fill-opacity="1"><g transform="translate(69.19221, 93.445515)"><g><path d="M 14.78125 0.625 C 12.320312 0.625 10.097656 0.148438 8.109375 -0.796875 C 6.117188 -1.742188 4.550781 -3.117188 3.40625 -4.921875 C 2.257812 -6.734375 1.6875 -8.84375 1.6875 -11.25 C 1.6875 -12.34375 1.8125 -13.476562 2.0625 -14.65625 C 2.726562 -17.789062 3.929688 -20.515625 5.671875 -22.828125 C 7.410156 -25.140625 9.609375 -26.910156 12.265625 -28.140625 C 14.921875 -29.367188 17.929688 -29.984375 21.296875 -29.984375 C 23.390625 -29.984375 25.21875 -29.773438 26.78125 -29.359375 C 28.351562 -28.941406 29.742188 -28.285156 30.953125 -27.390625 L 29.4375 -20.328125 C 28.4375 -21.304688 27.207031 -22.019531 25.75 -22.46875 C 24.289062 -22.914062 22.550781 -23.140625 20.53125 -23.140625 C 17.65625 -23.140625 15.269531 -22.382812 13.375 -20.875 C 11.488281 -19.363281 10.265625 -17.289062 9.703125 -14.65625 C 9.453125 -13.539062 9.328125 -12.503906 9.328125 -11.546875 C 9.328125 -9.753906 9.90625 -8.398438 11.0625 -7.484375 C 12.226562 -6.578125 14.179688 -6.125 16.921875 -6.125 C 18.941406 -6.125 20.796875 -6.363281 22.484375 -6.84375 C 24.179688 -7.320312 25.828125 -8.078125 27.421875 -9.109375 L 25.90625 -2.09375 C 22.882812 -0.28125 19.175781 0.625 14.78125 0.625 Z M 14.78125 0.625 "/></g></g></g><g fill="#5500ff" fill-opacity="1"><g transform="translate(97.831867, 93.445515)"><g><path d="M 6 -29.359375 L 13.4375 -29.359375 L 10.84375 -17.171875 L 23.359375 -29.359375 L 32.375 -29.359375 L 17.46875 -14.875 L 26.75 0 L 18.140625 0 L 9.953125 -12.984375 L 7.21875 0 L -0.203125 0 Z M 6 -29.359375 "/></g></g></g><g fill="#5500ff" fill-opacity="1"><g transform="translate(67.496171, 132.158749)"><g/></g></g></svg>