<svg xmlns="http://www.w3.org/2000/svg" xmlns:xlink="http://www.w3.org/1999/xlink" width="180" zoomAndPan="magnify" viewBox="0 0 135 135.000003" height="180" preserveAspectRatio="xMidYMid meet" version="1.0"><defs><g/><clipPath id="8321e976fb"><path d="M 0.496094 0 L 134.503906 0 L 134.503906 120 L 0.496094 120 Z M 0.496094 0 " clip-rule="nonzero"/></clipPath></defs><g clip-path="url(#8321e976fb)"><path fill="#eee6ff" d="M 19.449219 0.917969 L 115.335938 0.917969 C 131.71875 0.917969 145 14.214844 145 30.617188 L 145 90.015625 C 145 106.417969 131.71875 119.714844 115.335938 119.714844 L 19.449219 119.714844 C 3.0625 119.714844 -10.21875 106.417969 -10.21875 90.015625 L -10.21875 30.617188 C -10.21875 14.214844 3.0625 0.917969 19.449219 0.917969 " fill-opacity="1" fill-rule="nonzero"/></g><g fill="#5500ff" fill-opacity="1"><g transform="translate(6.599602, 54.73228)"><g><path d="M -0.171875 -4.234375 L 5.375 -8.484375 C 5.707031 -8.765625 6.503906 -9.351562 7.765625 -10.25 C 9.785156 -11.757812 11.316406 -12.941406 12.359375 -13.796875 C 13.410156 -14.648438 14.316406 -15.523438 15.078125 -16.421875 C 15.835938 -17.316406 16.3125 -18.195312 16.5 -19.0625 C 16.613281 -19.675781 16.671875 -20.113281 16.671875 -20.375 C 16.671875 -21.1875 16.394531 -21.820312 15.84375 -22.28125 C 15.300781 -22.738281 14.332031 -22.96875 12.9375 -22.96875 C 11.507812 -22.96875 10.046875 -22.71875 8.546875 -22.21875 C 7.046875 -21.71875 5.609375 -21.019531 4.234375 -20.125 L 5.75 -27.21875 C 7.207031 -28.082031 8.820312 -28.757812 10.59375 -29.25 C 12.375 -29.738281 14.21875 -29.984375 16.125 -29.984375 C 17.914062 -29.984375 19.476562 -29.664062 20.8125 -29.03125 C 22.144531 -28.40625 23.164062 -27.523438 23.875 -26.390625 C 24.59375 -25.265625 24.953125 -23.972656 24.953125 -22.515625 C 24.953125 -21.984375 24.878906 -21.335938 24.734375 -20.578125 C 24.265625 -18.421875 23.363281 -16.535156 22.03125 -14.921875 C 20.695312 -13.316406 18.71875 -11.503906 16.09375 -9.484375 L 11.59375 -6.09375 L 22.546875 -6.09375 L 21.296875 0 L -1.046875 0 Z M -0.171875 -4.234375 "/></g></g></g><g fill="#5500ff" fill-opacity="1"><g transform="translate(31.039896, 54.73228)"><g><path d="M 2.984375 -2.609375 L 10.625 -2.609375 L 4.328125 6.265625 L -2.359375 6.265625 Z M 2.984375 -2.609375 "/></g></g></g><g fill="#5500ff" fill-opacity="1"><g transform="translate(44.267892, 54.73228)"><g><path d="M 12.859375 -6.046875 L -0.625 -6.046875 L 0.34375 -10.671875 L 18.234375 -29.359375 L 25.578125 -29.359375 L 21.875 -11.921875 L 26.046875 -11.921875 L 24.78125 -6.046875 L 20.625 -6.046875 L 19.359375 0 L 11.59375 0 Z M 15.25 -11.921875 L 17.015625 -20.328125 L 9.078125 -11.921875 Z M 15.25 -11.921875 "/></g></g></g><g fill="#5500ff" fill-opacity="1"><g transform="translate(70.093974, 54.73228)"><g><path d="M 12.3125 0.625 C 10.175781 0.625 8.300781 0.191406 6.6875 -0.671875 C 5.082031 -1.535156 3.832031 -2.800781 2.9375 -4.46875 C 2.039062 -6.132812 1.59375 -8.117188 1.59375 -10.421875 C 1.59375 -11.867188 1.75 -13.28125 2.0625 -14.65625 C 2.726562 -17.820312 3.851562 -20.550781 5.4375 -22.84375 C 7.019531 -25.144531 8.953125 -26.910156 11.234375 -28.140625 C 13.515625 -29.367188 16.039062 -29.984375 18.8125 -29.984375 C 22.09375 -29.984375 24.703125 -29.003906 26.640625 -27.046875 C 28.585938 -25.085938 29.5625 -22.382812 29.5625 -18.9375 C 29.5625 -17.507812 29.410156 -16.082031 29.109375 -14.65625 C 28.429688 -11.488281 27.285156 -8.757812 25.671875 -6.46875 C 24.066406 -4.175781 22.113281 -2.421875 19.8125 -1.203125 C 17.519531 0.015625 15.019531 0.625 12.3125 0.625 Z M 13.8125 -6.34375 C 15.6875 -6.34375 17.289062 -7.066406 18.625 -8.515625 C 19.957031 -9.972656 20.90625 -11.992188 21.46875 -14.578125 C 21.738281 -15.804688 21.875 -16.992188 21.875 -18.140625 C 21.875 -19.710938 21.515625 -20.910156 20.796875 -21.734375 C 20.085938 -22.554688 18.9375 -22.96875 17.34375 -22.96875 C 15.4375 -22.96875 13.8125 -22.21875 12.46875 -20.71875 C 11.125 -19.226562 10.175781 -17.179688 9.625 -14.578125 C 9.34375 -13.171875 9.203125 -12.019531 9.203125 -11.125 C 9.203125 -7.9375 10.738281 -6.34375 13.8125 -6.34375 Z M 13.8125 -6.34375 "/></g></g></g><g fill="#5500ff" fill-opacity="1"><g transform="translate(99.237558, 54.73228)"><g><path d="M 12.3125 0.625 C 10.175781 0.625 8.300781 0.191406 6.6875 -0.671875 C 5.082031 -1.535156 3.832031 -2.800781 2.9375 -4.46875 C 2.039062 -6.132812 1.59375 -8.117188 1.59375 -10.421875 C 1.59375 -11.867188 1.75 -13.28125 2.0625 -14.65625 C 2.726562 -17.820312 3.851562 -20.550781 5.4375 -22.84375 C 7.019531 -25.144531 8.953125 -26.910156 11.234375 -28.140625 C 13.515625 -29.367188 16.039062 -29.984375 18.8125 -29.984375 C 22.09375 -29.984375 24.703125 -29.003906 26.640625 -27.046875 C 28.585938 -25.085938 29.5625 -22.382812 29.5625 -18.9375 C 29.5625 -17.507812 29.410156 -16.082031 29.109375 -14.65625 C 28.429688 -11.488281 27.285156 -8.757812 25.671875 -6.46875 C 24.066406 -4.175781 22.113281 -2.421875 19.8125 -1.203125 C 17.519531 0.015625 15.019531 0.625 12.3125 0.625 Z M 13.8125 -6.34375 C 15.6875 -6.34375 17.289062 -7.066406 18.625 -8.515625 C 19.957031 -9.972656 20.90625 -11.992188 21.46875 -14.578125 C 21.738281 -15.804688 21.875 -16.992188 21.875 -18.140625 C 21.875 -19.710938 21.515625 -20.910156 20.796875 -21.734375 C 20.085938 -22.554688 18.9375 -22.96875 17.34375 -22.96875 C 15.4375 -22.96875 13.8125 -22.21875 12.46875 -20.71875 C 11.125 -19.226562 10.175781 -17.179688 9.625 -14.578125 C 9.34375 -13.171875 9.203125 -12.019531 9.203125 -11.125 C 9.203125 -7.9375 10.738281 -6.34375 13.8125 -6.34375 Z M 13.8125 -6.34375 "/></g></g></g><g fill="#5500ff" fill-opacity="1"><g transform="translate(26.72397, 93.445515)"><g><path d="M 2.609375 -13.390625 C 3.972656 -19.859375 8.632812 -23.09375 16.59375 -23.09375 C 19.78125 -23.09375 22.265625 -22.457031 24.046875 -21.1875 C 25.828125 -19.914062 26.71875 -18.078125 26.71875 -15.671875 C 26.71875 -14.960938 26.628906 -14.203125 26.453125 -13.390625 L 23.640625 0 L 16.25 0 L 18.984375 -12.984375 C 19.117188 -13.617188 19.1875 -14.148438 19.1875 -14.578125 C 19.1875 -15.492188 18.894531 -16.179688 18.3125 -16.640625 C 17.726562 -17.109375 16.75 -17.34375 15.375 -17.34375 C 13.78125 -17.34375 12.546875 -16.972656 11.671875 -16.234375 C 10.804688 -15.492188 10.21875 -14.410156 9.90625 -12.984375 L 9.40625 -10.578125 C 9.851562 -10.972656 10.398438 -11.289062 11.046875 -11.53125 C 11.691406 -11.769531 12.347656 -11.890625 13.015625 -11.890625 L 16.125 -11.890625 L 15 -6.546875 L 11.59375 -6.546875 C 10.695312 -6.546875 9.910156 -6.285156 9.234375 -5.765625 C 8.566406 -5.253906 8.132812 -4.535156 7.9375 -3.609375 L 7.1875 0 L -0.203125 0 Z M 2.609375 -13.390625 "/></g></g></g><g fill="#5500ff" fill-opacity="1"><g transform="translate(54.355783, 93.445515)"><g><path d="M 7.34375 0.625 C 5.21875 0.625 3.492188 0.101562 2.171875 -0.9375 C 0.859375 -1.988281 0.203125 -3.425781 0.203125 -5.25 C 0.203125 -5.8125 0.257812 -6.359375 0.375 -6.890625 C 0.882812 -9.328125 2.082031 -11.1875 3.96875 -12.46875 C 5.851562 -13.757812 8.296875 -14.40625 11.296875 -14.40625 C 12.523438 -14.40625 13.726562 -14.289062 14.90625 -14.0625 C 16.082031 -13.84375 17.078125 -13.535156 17.890625 -13.140625 L 18.0625 -13.859375 C 18.175781 -14.421875 18.234375 -14.8125 18.234375 -15.03125 C 18.234375 -15.988281 17.816406 -16.671875 16.984375 -17.078125 C 16.160156 -17.484375 14.738281 -17.6875 12.71875 -17.6875 C 11.375 -17.6875 10.015625 -17.546875 8.640625 -17.265625 C 7.273438 -16.984375 6.003906 -16.59375 4.828125 -16.09375 L 5.96875 -21.46875 C 7.03125 -21.9375 8.414062 -22.320312 10.125 -22.625 C 11.832031 -22.9375 13.582031 -23.09375 15.375 -23.09375 C 17.414062 -23.09375 19.210938 -22.742188 20.765625 -22.046875 C 22.316406 -21.347656 23.503906 -20.40625 24.328125 -19.21875 C 25.160156 -18.03125 25.578125 -16.71875 25.578125 -15.28125 C 25.578125 -14.976562 25.519531 -14.488281 25.40625 -13.8125 L 22.515625 0 L 15.125 0 L 16.796875 -8.0625 C 15.515625 -8.820312 13.945312 -9.203125 12.09375 -9.203125 C 10.800781 -9.203125 9.832031 -9 9.1875 -8.59375 C 8.550781 -8.1875 8.132812 -7.546875 7.9375 -6.671875 C 7.882812 -6.335938 7.859375 -6.101562 7.859375 -5.96875 C 7.859375 -5.40625 8.066406 -4.984375 8.484375 -4.703125 C 8.898438 -4.421875 9.628906 -4.28125 10.671875 -4.28125 C 11.503906 -4.28125 12.273438 -4.421875 12.984375 -4.703125 L 11.96875 0.046875 C 10.707031 0.429688 9.164062 0.625 7.34375 0.625 Z M 7.34375 0.625 "/></g></g></g><g fill="#5500ff" fill-opacity="1"><g transform="translate(80.853761, 93.445515)"><g><path d="M -17.8125 -29.609375 L 2.21875 -29.609375 L 1.265625 -24.984375 L -18.78125 -24.984375 Z M -17.8125 -29.609375 "/></g></g></g><g fill="#5500ff" fill-opacity="1"><g transform="translate(80.853761, 93.445515)"><g><path d="M 3.609375 -13.109375 L 2.265625 -16.765625 C 6.578125 -20.984375 11.378906 -23.09375 16.671875 -23.09375 C 19.785156 -23.09375 22.21875 -22.414062 23.96875 -21.0625 C 25.71875 -19.707031 26.59375 -17.921875 26.59375 -15.703125 C 26.59375 -15.171875 26.519531 -14.554688 26.375 -13.859375 L 23.4375 0 L 16.046875 0 L 18.859375 -13.265625 C 18.972656 -13.742188 19.03125 -14.234375 19.03125 -14.734375 C 19.03125 -15.640625 18.75 -16.300781 18.1875 -16.71875 C 17.625 -17.132812 16.710938 -17.34375 15.453125 -17.34375 C 13.410156 -17.34375 11.59375 -16.769531 10 -15.625 L 10.96875 -12.984375 L 8.234375 0 L 0.84375 0 Z M 3.609375 -13.109375 "/></g></g></g><g fill="#5500ff" fill-opacity="1"><g transform="translate(67.496171, 132.158749)"><g/></g></g></svg>