<svg xmlns="http://www.w3.org/2000/svg" xmlns:xlink="http://www.w3.org/1999/xlink" width="180" zoomAndPan="magnify" viewBox="0 0 135 135.000003" height="180" preserveAspectRatio="xMidYMid meet" version="1.0"><defs><g/></defs><g fill="#000000" fill-opacity="0.4"><g transform="translate(28.405794, 56.588593)"><g><path d="M 11.046875 0.625 C 9.203125 0.625 7.535156 0.21875 6.046875 -0.59375 C 4.566406 -1.40625 3.398438 -2.566406 2.546875 -4.078125 C 1.691406 -5.585938 1.265625 -7.363281 1.265625 -9.40625 C 1.265625 -10.5 1.390625 -11.632812 1.640625 -12.8125 C 2.421875 -16.445312 3.675781 -19.546875 5.40625 -22.109375 C 7.144531 -24.671875 9.273438 -26.625 11.796875 -27.96875 C 14.316406 -29.3125 17.117188 -29.984375 20.203125 -29.984375 C 22.242188 -29.984375 23.96875 -29.734375 25.375 -29.234375 L 24.0625 -22.9375 C 22.945312 -23.601562 21.4375 -23.9375 19.53125 -23.9375 C 17.425781 -23.9375 15.597656 -23.367188 14.046875 -22.234375 C 12.492188 -21.097656 11.328125 -19.425781 10.546875 -17.21875 C 11.378906 -17.945312 12.460938 -18.519531 13.796875 -18.9375 C 15.128906 -19.363281 16.476562 -19.578125 17.84375 -19.578125 C 20.113281 -19.578125 21.96875 -18.929688 23.40625 -17.640625 C 24.851562 -16.347656 25.578125 -14.570312 25.578125 -12.3125 C 25.578125 -11.46875 25.476562 -10.640625 25.28125 -9.828125 C 24.863281 -7.835938 24.03125 -6.050781 22.78125 -4.46875 C 21.539062 -2.882812 19.914062 -1.640625 17.90625 -0.734375 C 15.90625 0.171875 13.617188 0.625 11.046875 0.625 Z M 12.390625 -5.125 C 13.617188 -5.125 14.742188 -5.539062 15.765625 -6.375 C 16.785156 -7.21875 17.425781 -8.242188 17.6875 -9.453125 C 17.789062 -10.066406 17.84375 -10.484375 17.84375 -10.703125 C 17.84375 -11.660156 17.550781 -12.414062 16.96875 -12.96875 C 16.382812 -13.53125 15.472656 -13.8125 14.234375 -13.8125 C 13.335938 -13.8125 12.484375 -13.566406 11.671875 -13.078125 C 10.859375 -12.585938 10.191406 -11.9375 9.671875 -11.125 C 9.160156 -10.3125 8.90625 -9.445312 8.90625 -8.53125 C 8.90625 -7.550781 9.226562 -6.738281 9.875 -6.09375 C 10.519531 -5.445312 11.359375 -5.125 12.390625 -5.125 Z M 12.390625 -5.125 "/></g></g></g><g fill="#000000" fill-opacity="0.4"><g transform="translate(54.77779, 56.588593)"><g><path d="M 8.140625 0.625 C 6.078125 0.625 4.359375 0.390625 2.984375 -0.078125 L 4.328125 -6.390625 C 5.472656 -5.710938 6.984375 -5.375 8.859375 -5.375 C 10.984375 -5.375 12.84375 -5.929688 14.4375 -7.046875 C 16.039062 -8.171875 17.21875 -9.835938 17.96875 -12.046875 C 17.132812 -11.347656 16.085938 -10.796875 14.828125 -10.390625 C 13.566406 -9.984375 12.25 -9.78125 10.875 -9.78125 C 8.519531 -9.78125 6.59375 -10.453125 5.09375 -11.796875 C 3.601562 -13.140625 2.859375 -14.972656 2.859375 -17.296875 C 2.859375 -18.023438 2.941406 -18.8125 3.109375 -19.65625 C 3.523438 -21.644531 4.351562 -23.414062 5.59375 -24.96875 C 6.84375 -26.519531 8.460938 -27.742188 10.453125 -28.640625 C 12.441406 -29.535156 14.722656 -29.984375 17.296875 -29.984375 C 20.628906 -29.984375 23.113281 -29.195312 24.75 -27.625 C 26.394531 -26.0625 27.21875 -23.8125 27.21875 -20.875 C 27.21875 -19.5625 27.050781 -18.101562 26.71875 -16.5 C 25.539062 -10.988281 23.3125 -6.753906 20.03125 -3.796875 C 16.757812 -0.847656 12.796875 0.625 8.140625 0.625 Z M 14.234375 -15.5 C 15.441406 -15.5 16.554688 -15.910156 17.578125 -16.734375 C 18.597656 -17.554688 19.25 -18.585938 19.53125 -19.828125 C 19.582031 -20.046875 19.609375 -20.351562 19.609375 -20.75 C 19.609375 -21.757812 19.28125 -22.582031 18.625 -23.21875 C 17.96875 -23.863281 17.125 -24.1875 16.09375 -24.1875 C 15.1875 -24.1875 14.328125 -23.941406 13.515625 -23.453125 C 12.710938 -22.960938 12.050781 -22.3125 11.53125 -21.5 C 11.007812 -20.6875 10.75 -19.820312 10.75 -18.90625 C 10.75 -17.925781 11.070312 -17.113281 11.71875 -16.46875 C 12.363281 -15.820312 13.203125 -15.5 14.234375 -15.5 Z M 14.234375 -15.5 "/></g></g></g><g fill="#000000" fill-opacity="0.4"><g transform="translate(81.149785, 56.588593)"><g><path d="M 12.3125 0.625 C 10.175781 0.625 8.300781 0.191406 6.6875 -0.671875 C 5.082031 -1.535156 3.832031 -2.800781 2.9375 -4.46875 C 2.039062 -6.132812 1.59375 -8.117188 1.59375 -10.421875 C 1.59375 -11.867188 1.75 -13.28125 2.0625 -14.65625 C 2.726562 -17.820312 3.851562 -20.550781 5.4375 -22.84375 C 7.019531 -25.144531 8.953125 -26.910156 11.234375 -28.140625 C 13.515625 -29.367188 16.039062 -29.984375 18.8125 -29.984375 C 22.09375 -29.984375 24.703125 -29.003906 26.640625 -27.046875 C 28.585938 -25.085938 29.5625 -22.382812 29.5625 -18.9375 C 29.5625 -17.507812 29.410156 -16.082031 29.109375 -14.65625 C 28.429688 -11.488281 27.285156 -8.757812 25.671875 -6.46875 C 24.066406 -4.175781 22.113281 -2.421875 19.8125 -1.203125 C 17.519531 0.015625 15.019531 0.625 12.3125 0.625 Z M 13.8125 -6.34375 C 15.6875 -6.34375 17.289062 -7.066406 18.625 -8.515625 C 19.957031 -9.972656 20.90625 -11.992188 21.46875 -14.578125 C 21.738281 -15.804688 21.875 -16.992188 21.875 -18.140625 C 21.875 -19.710938 21.515625 -20.910156 20.796875 -21.734375 C 20.085938 -22.554688 18.9375 -22.96875 17.34375 -22.96875 C 15.4375 -22.96875 13.8125 -22.21875 12.46875 -20.71875 C 11.125 -19.226562 10.175781 -17.179688 9.625 -14.578125 C 9.34375 -13.171875 9.203125 -12.019531 9.203125 -11.125 C 9.203125 -7.9375 10.738281 -6.34375 13.8125 -6.34375 Z M 13.8125 -6.34375 "/></g></g></g><g fill="#8c52ff" fill-opacity="1"><g transform="translate(26.549481, 54.73228)"><g><path d="M 11.046875 0.625 C 9.203125 0.625 7.535156 0.21875 6.046875 -0.59375 C 4.566406 -1.40625 3.398438 -2.566406 2.546875 -4.078125 C 1.691406 -5.585938 1.265625 -7.363281 1.265625 -9.40625 C 1.265625 -10.5 1.390625 -11.632812 1.640625 -12.8125 C 2.421875 -16.445312 3.675781 -19.546875 5.40625 -22.109375 C 7.144531 -24.671875 9.273438 -26.625 11.796875 -27.96875 C 14.316406 -29.3125 17.117188 -29.984375 20.203125 -29.984375 C 22.242188 -29.984375 23.96875 -29.734375 25.375 -29.234375 L 24.0625 -22.9375 C 22.945312 -23.601562 21.4375 -23.9375 19.53125 -23.9375 C 17.425781 -23.9375 15.597656 -23.367188 14.046875 -22.234375 C 12.492188 -21.097656 11.328125 -19.425781 10.546875 -17.21875 C 11.378906 -17.945312 12.460938 -18.519531 13.796875 -18.9375 C 15.128906 -19.363281 16.476562 -19.578125 17.84375 -19.578125 C 20.113281 -19.578125 21.96875 -18.929688 23.40625 -17.640625 C 24.851562 -16.347656 25.578125 -14.570312 25.578125 -12.3125 C 25.578125 -11.46875 25.476562 -10.640625 25.28125 -9.828125 C 24.863281 -7.835938 24.03125 -6.050781 22.78125 -4.46875 C 21.539062 -2.882812 19.914062 -1.640625 17.90625 -0.734375 C 15.90625 0.171875 13.617188 0.625 11.046875 0.625 Z M 12.390625 -5.125 C 13.617188 -5.125 14.742188 -5.539062 15.765625 -6.375 C 16.785156 -7.21875 17.425781 -8.242188 17.6875 -9.453125 C 17.789062 -10.066406 17.84375 -10.484375 17.84375 -10.703125 C 17.84375 -11.660156 17.550781 -12.414062 16.96875 -12.96875 C 16.382812 -13.53125 15.472656 -13.8125 14.234375 -13.8125 C 13.335938 -13.8125 12.484375 -13.566406 11.671875 -13.078125 C 10.859375 -12.585938 10.191406 -11.9375 9.671875 -11.125 C 9.160156 -10.3125 8.90625 -9.445312 8.90625 -8.53125 C 8.90625 -7.550781 9.226562 -6.738281 9.875 -6.09375 C 10.519531 -5.445312 11.359375 -5.125 12.390625 -5.125 Z M 12.390625 -5.125 "/></g></g></g><g fill="#8c52ff" fill-opacity="1"><g transform="translate(52.921477, 54.73228)"><g><path d="M 8.140625 0.625 C 6.078125 0.625 4.359375 0.390625 2.984375 -0.078125 L 4.328125 -6.390625 C 5.472656 -5.710938 6.984375 -5.375 8.859375 -5.375 C 10.984375 -5.375 12.84375 -5.929688 14.4375 -7.046875 C 16.039062 -8.171875 17.21875 -9.835938 17.96875 -12.046875 C 17.132812 -11.347656 16.085938 -10.796875 14.828125 -10.390625 C 13.566406 -9.984375 12.25 -9.78125 10.875 -9.78125 C 8.519531 -9.78125 6.59375 -10.453125 5.09375 -11.796875 C 3.601562 -13.140625 2.859375 -14.972656 2.859375 -17.296875 C 2.859375 -18.023438 2.941406 -18.8125 3.109375 -19.65625 C 3.523438 -21.644531 4.351562 -23.414062 5.59375 -24.96875 C 6.84375 -26.519531 8.460938 -27.742188 10.453125 -28.640625 C 12.441406 -29.535156 14.722656 -29.984375 17.296875 -29.984375 C 20.628906 -29.984375 23.113281 -29.195312 24.75 -27.625 C 26.394531 -26.0625 27.21875 -23.8125 27.21875 -20.875 C 27.21875 -19.5625 27.050781 -18.101562 26.71875 -16.5 C 25.539062 -10.988281 23.3125 -6.753906 20.03125 -3.796875 C 16.757812 -0.847656 12.796875 0.625 8.140625 0.625 Z M 14.234375 -15.5 C 15.441406 -15.5 16.554688 -15.910156 17.578125 -16.734375 C 18.597656 -17.554688 19.25 -18.585938 19.53125 -19.828125 C 19.582031 -20.046875 19.609375 -20.351562 19.609375 -20.75 C 19.609375 -21.757812 19.28125 -22.582031 18.625 -23.21875 C 17.96875 -23.863281 17.125 -24.1875 16.09375 -24.1875 C 15.1875 -24.1875 14.328125 -23.941406 13.515625 -23.453125 C 12.710938 -22.960938 12.050781 -22.3125 11.53125 -21.5 C 11.007812 -20.6875 10.75 -19.820312 10.75 -18.90625 C 10.75 -17.925781 11.070312 -17.113281 11.71875 -16.46875 C 12.363281 -15.820312 13.203125 -15.5 14.234375 -15.5 Z M 14.234375 -15.5 "/></g></g></g><g fill="#8c52ff" fill-opacity="1"><g transform="translate(79.293473, 54.73228)"><g><path d="M 12.3125 0.625 C 10.175781 0.625 8.300781 0.191406 6.6875 -0.671875 C 5.082031 -1.535156 3.832031 -2.800781 2.9375 -4.46875 C 2.039062 -6.132812 1.59375 -8.117188 1.59375 -10.421875 C 1.59375 -11.867188 1.75 -13.28125 2.0625 -14.65625 C 2.726562 -17.820312 3.851562 -20.550781 5.4375 -22.84375 C 7.019531 -25.144531 8.953125 -26.910156 11.234375 -28.140625 C 13.515625 -29.367188 16.039062 -29.984375 18.8125 -29.984375 C 22.09375 -29.984375 24.703125 -29.003906 26.640625 -27.046875 C 28.585938 -25.085938 29.5625 -22.382812 29.5625 -18.9375 C 29.5625 -17.507812 29.410156 -16.082031 29.109375 -14.65625 C 28.429688 -11.488281 27.285156 -8.757812 25.671875 -6.46875 C 24.066406 -4.175781 22.113281 -2.421875 19.8125 -1.203125 C 17.519531 0.015625 15.019531 0.625 12.3125 0.625 Z M 13.8125 -6.34375 C 15.6875 -6.34375 17.289062 -7.066406 18.625 -8.515625 C 19.957031 -9.972656 20.90625 -11.992188 21.46875 -14.578125 C 21.738281 -15.804688 21.875 -16.992188 21.875 -18.140625 C 21.875 -19.710938 21.515625 -20.910156 20.796875 -21.734375 C 20.085938 -22.554688 18.9375 -22.96875 17.34375 -22.96875 C 15.4375 -22.96875 13.8125 -22.21875 12.46875 -20.71875 C 11.125 -19.226562 10.175781 -17.179688 9.625 -14.578125 C 9.34375 -13.171875 9.203125 -12.019531 9.203125 -11.125 C 9.203125 -7.9375 10.738281 -6.34375 13.8125 -6.34375 Z M 13.8125 -6.34375 "/></g></g></g><g fill="#000000" fill-opacity="0.4"><g transform="translate(8.897953, 95.301828)"><g><path d="M 14.78125 0.625 C 12.320312 0.625 10.097656 0.148438 8.109375 -0.796875 C 6.117188 -1.742188 4.550781 -3.117188 3.40625 -4.921875 C 2.257812 -6.734375 1.6875 -8.84375 1.6875 -11.25 C 1.6875 -12.34375 1.8125 -13.476562 2.0625 -14.65625 C 2.726562 -17.789062 3.929688 -20.515625 5.671875 -22.828125 C 7.410156 -25.140625 9.609375 -26.910156 12.265625 -28.140625 C 14.921875 -29.367188 17.929688 -29.984375 21.296875 -29.984375 C 23.390625 -29.984375 25.21875 -29.773438 26.78125 -29.359375 C 28.351562 -28.941406 29.742188 -28.285156 30.953125 -27.390625 L 29.4375 -20.328125 C 28.4375 -21.304688 27.207031 -22.019531 25.75 -22.46875 C 24.289062 -22.914062 22.550781 -23.140625 20.53125 -23.140625 C 17.65625 -23.140625 15.269531 -22.382812 13.375 -20.875 C 11.488281 -19.363281 10.265625 -17.289062 9.703125 -14.65625 C 9.453125 -13.539062 9.328125 -12.503906 9.328125 -11.546875 C 9.328125 -9.753906 9.90625 -8.398438 11.0625 -7.484375 C 12.226562 -6.578125 14.179688 -6.125 16.921875 -6.125 C 18.941406 -6.125 20.796875 -6.363281 22.484375 -6.84375 C 24.179688 -7.320312 25.828125 -8.078125 27.421875 -9.109375 L 25.90625 -2.09375 C 22.882812 -0.28125 19.175781 0.625 14.78125 0.625 Z M 14.78125 0.625 "/></g></g></g><g fill="#000000" fill-opacity="0.4"><g transform="translate(37.537609, 95.301828)"><g><path d="M 6 -29.359375 L 13.4375 -29.359375 L 8.53125 -6.265625 L 21.296875 -6.265625 L 19.984375 0 L -0.203125 0 Z M 6 -29.359375 "/></g></g></g><g fill="#000000" fill-opacity="0.4"><g transform="translate(59.836225, 95.301828)"><g><path d="M 6 -29.359375 L 13.4375 -29.359375 L 7.21875 0 L -0.203125 0 Z M 6 -29.359375 "/></g></g></g><g fill="#000000" fill-opacity="0.4"><g transform="translate(71.048523, 95.301828)"><g><path d="M 14.78125 0.625 C 12.320312 0.625 10.097656 0.148438 8.109375 -0.796875 C 6.117188 -1.742188 4.550781 -3.117188 3.40625 -4.921875 C 2.257812 -6.734375 1.6875 -8.84375 1.6875 -11.25 C 1.6875 -12.34375 1.8125 -13.476562 2.0625 -14.65625 C 2.726562 -17.789062 3.929688 -20.515625 5.671875 -22.828125 C 7.410156 -25.140625 9.609375 -26.910156 12.265625 -28.140625 C 14.921875 -29.367188 17.929688 -29.984375 21.296875 -29.984375 C 23.390625 -29.984375 25.21875 -29.773438 26.78125 -29.359375 C 28.351562 -28.941406 29.742188 -28.285156 30.953125 -27.390625 L 29.4375 -20.328125 C 28.4375 -21.304688 27.207031 -22.019531 25.75 -22.46875 C 24.289062 -22.914062 22.550781 -23.140625 20.53125 -23.140625 C 17.65625 -23.140625 15.269531 -22.382812 13.375 -20.875 C 11.488281 -19.363281 10.265625 -17.289062 9.703125 -14.65625 C 9.453125 -13.539062 9.328125 -12.503906 9.328125 -11.546875 C 9.328125 -9.753906 9.90625 -8.398438 11.0625 -7.484375 C 12.226562 -6.578125 14.179688 -6.125 16.921875 -6.125 C 18.941406 -6.125 20.796875 -6.363281 22.484375 -6.84375 C 24.179688 -7.320312 25.828125 -8.078125 27.421875 -9.109375 L 25.90625 -2.09375 C 22.882812 -0.28125 19.175781 0.625 14.78125 0.625 Z M 14.78125 0.625 "/></g></g></g><g fill="#000000" fill-opacity="0.4"><g transform="translate(99.68818, 95.301828)"><g><path d="M 6 -29.359375 L 13.4375 -29.359375 L 10.84375 -17.171875 L 23.359375 -29.359375 L 32.375 -29.359375 L 17.46875 -14.875 L 26.75 0 L 18.140625 0 L 9.953125 -12.984375 L 7.21875 0 L -0.203125 0 Z M 6 -29.359375 "/></g></g></g><g fill="#8c52ff" fill-opacity="1"><g transform="translate(7.04164, 93.445515)"><g><path d="M 14.78125 0.625 C 12.320312 0.625 10.097656 0.148438 8.109375 -0.796875 C 6.117188 -1.742188 4.550781 -3.117188 3.40625 -4.921875 C 2.257812 -6.734375 1.6875 -8.84375 1.6875 -11.25 C 1.6875 -12.34375 1.8125 -13.476562 2.0625 -14.65625 C 2.726562 -17.789062 3.929688 -20.515625 5.671875 -22.828125 C 7.410156 -25.140625 9.609375 -26.910156 12.265625 -28.140625 C 14.921875 -29.367188 17.929688 -29.984375 21.296875 -29.984375 C 23.390625 -29.984375 25.21875 -29.773438 26.78125 -29.359375 C 28.351562 -28.941406 29.742188 -28.285156 30.953125 -27.390625 L 29.4375 -20.328125 C 28.4375 -21.304688 27.207031 -22.019531 25.75 -22.46875 C 24.289062 -22.914062 22.550781 -23.140625 20.53125 -23.140625 C 17.65625 -23.140625 15.269531 -22.382812 13.375 -20.875 C 11.488281 -19.363281 10.265625 -17.289062 9.703125 -14.65625 C 9.453125 -13.539062 9.328125 -12.503906 9.328125 -11.546875 C 9.328125 -9.753906 9.90625 -8.398438 11.0625 -7.484375 C 12.226562 -6.578125 14.179688 -6.125 16.921875 -6.125 C 18.941406 -6.125 20.796875 -6.363281 22.484375 -6.84375 C 24.179688 -7.320312 25.828125 -8.078125 27.421875 -9.109375 L 25.90625 -2.09375 C 22.882812 -0.28125 19.175781 0.625 14.78125 0.625 Z M 14.78125 0.625 "/></g></g></g><g fill="#8c52ff" fill-opacity="1"><g transform="translate(35.681296, 93.445515)"><g><path d="M 6 -29.359375 L 13.4375 -29.359375 L 8.53125 -6.265625 L 21.296875 -6.265625 L 19.984375 0 L -0.203125 0 Z M 6 -29.359375 "/></g></g></g><g fill="#8c52ff" fill-opacity="1"><g transform="translate(57.979912, 93.445515)"><g><path d="M 6 -29.359375 L 13.4375 -29.359375 L 7.21875 0 L -0.203125 0 Z M 6 -29.359375 "/></g></g></g><g fill="#8c52ff" fill-opacity="1"><g transform="translate(69.19221, 93.445515)"><g><path d="M 14.78125 0.625 C 12.320312 0.625 10.097656 0.148438 8.109375 -0.796875 C 6.117188 -1.742188 4.550781 -3.117188 3.40625 -4.921875 C 2.257812 -6.734375 1.6875 -8.84375 1.6875 -11.25 C 1.6875 -12.34375 1.8125 -13.476562 2.0625 -14.65625 C 2.726562 -17.789062 3.929688 -20.515625 5.671875 -22.828125 C 7.410156 -25.140625 9.609375 -26.910156 12.265625 -28.140625 C 14.921875 -29.367188 17.929688 -29.984375 21.296875 -29.984375 C 23.390625 -29.984375 25.21875 -29.773438 26.78125 -29.359375 C 28.351562 -28.941406 29.742188 -28.285156 30.953125 -27.390625 L 29.4375 -20.328125 C 28.4375 -21.304688 27.207031 -22.019531 25.75 -22.46875 C 24.289062 -22.914062 22.550781 -23.140625 20.53125 -23.140625 C 17.65625 -23.140625 15.269531 -22.382812 13.375 -20.875 C 11.488281 -19.363281 10.265625 -17.289062 9.703125 -14.65625 C 9.453125 -13.539062 9.328125 -12.503906 9.328125 -11.546875 C 9.328125 -9.753906 9.90625 -8.398438 11.0625 -7.484375 C 12.226562 -6.578125 14.179688 -6.125 16.921875 -6.125 C 18.941406 -6.125 20.796875 -6.363281 22.484375 -6.84375 C 24.179688 -7.320312 25.828125 -8.078125 27.421875 -9.109375 L 25.90625 -2.09375 C 22.882812 -0.28125 19.175781 0.625 14.78125 0.625 Z M 14.78125 0.625 "/></g></g></g><g fill="#8c52ff" fill-opacity="1"><g transform="translate(97.831867, 93.445515)"><g><path d="M 6 -29.359375 L 13.4375 -29.359375 L 10.84375 -17.171875 L 23.359375 -29.359375 L 32.375 -29.359375 L 17.46875 -14.875 L 26.75 0 L 18.140625 0 L 9.953125 -12.984375 L 7.21875 0 L -0.203125 0 Z M 6 -29.359375 "/></g></g></g><g fill="#8c52ff" fill-opacity="1"><g transform="translate(67.496171, 132.158749)"><g/></g></g></svg>